<?xml version="1.0" encoding="utf-8"?>
<!-- Generator: Adobe Illustrator 16.0.0, SVG Export Plug-In . SVG Version: 6.00 Build 0)  -->
<!DOCTYPE svg PUBLIC "-//W3C//DTD SVG 1.1//EN" "http://www.w3.org/Graphics/SVG/1.1/DTD/svg11.dtd">
<svg version="1.1" id="Layer_1" xmlns="http://www.w3.org/2000/svg" xmlns:xlink="http://www.w3.org/1999/xlink" x="0px" y="0px"
	 width="134.246px" height="170.33px" viewBox="-1.888 0 134.246 170.33" enable-background="new -1.888 0 134.246 170.33"
	 xml:space="preserve">
<g>
	<path d="M10.278,62.303v84.953c0,12.795,10.278,23.073,23.074,23.073h63.766c12.796,0,23.074-10.278,23.074-23.073V62.303
		c6.713-0.21,12.166-5.873,12.166-12.585V32.727c0-6.922-5.664-12.585-12.586-12.585H95.86v-6.503
		c0-7.552-6.083-13.635-13.635-13.635H48.245c-7.551,0-13.634,6.083-13.634,13.635v6.503H10.698
		c-6.922,0-12.585,5.663-12.585,12.585v17.2C-1.888,56.64,3.566,62.094,10.278,62.303z M97.118,157.954H33.352
		c-5.874,0-10.488-4.614-10.488-10.487V62.513h84.743v84.953C107.606,153.13,102.782,157.954,97.118,157.954z M47.196,13.639
		c0-0.629,0.42-1.049,1.049-1.049h33.772c0.629,0,1.049,0.42,1.049,1.049v6.503h-35.87V13.639z M10.698,32.727h109.075v17.2H10.698
		V32.727z"/>
	<rect x="80.548" y="78.455" width="12.586" height="61.25"/>
	<rect x="58.942" y="78.455" width="12.586" height="61.25"/>
	<rect x="37.337" y="78.455" width="12.585" height="61.25"/>
</g>
</svg>
