<?xml version="1.0" encoding="utf-8"?>
<!-- Generator: Adobe Illustrator 16.0.0, SVG Export Plug-In . SVG Version: 6.00 Build 0)  -->
<!DOCTYPE svg PUBLIC "-//W3C//DTD SVG 1.1//EN" "http://www.w3.org/Graphics/SVG/1.1/DTD/svg11.dtd">
<svg version="1.1" id="Layer_1" xmlns="http://www.w3.org/2000/svg" xmlns:xlink="http://www.w3.org/1999/xlink" x="0px" y="0px"
	 width="145.15px" height="119.836px" viewBox="0 0 145.15 119.836" enable-background="new 0 0 145.15 119.836"
	 xml:space="preserve">
<title>Space_EXPORT</title>
<circle cx="15.163" cy="41.994" r="5.999"/>
<circle cx="87.152" cy="61.984" r="5.999"/>
<circle cx="139.152" cy="101.985" r="5.999"/>
<circle cx="55.164" cy="5.999" r="6"/>
<path d="M143.473,47.469c-3.314-8.39-16.55-11.432-36.812-8.537c2.451,2.195,4.672,4.634,6.629,7.279
	c13.424-1.217,21.416,0.839,22.737,4.194c1.112,2.854-1.762,7.888-8.243,13.907c-0.944,0.86-1.93,1.741-3.021,2.644
	c-0.67,0.566-1.384,1.153-2.097,1.74l-1.301,1.007l-2.433,1.679l0,0l-1.909,1.342c-0.661-9.524-4.436-18.567-10.739-25.737
	c-0.63-0.755-1.329-1.454-2.098-2.098c-0.958-1.016-1.974-1.975-3.042-2.873c-0.734-0.63-1.511-1.217-2.308-1.783l-1.09-0.734l0,0
	c-1.166-0.763-2.369-1.463-3.608-2.098l0,0c-1.872-1.016-3.814-1.898-5.811-2.643c-1.363-0.482-2.748-0.923-4.195-1.279
	c-1.447-0.357-2.831-0.65-4.194-0.882c-3.822-0.616-7.707-0.736-11.559-0.356l-1.091,0.147c-0.521,0.044-1.04,0.121-1.552,0.23
	c-0.692,0.104-1.384,0.23-2.097,0.398c-0.75,0.172-1.499,0.354-2.245,0.545l-1.3,0.357c-1.406,0.461-2.79,0.965-4.195,1.531
	c-0.566,0.23-1.133,0.482-1.678,0.755s-0.839,0.398-1.258,0.629c-0.42,0.23-0.923,0.462-1.364,0.714l-0.482,0.293
	c-0.587,0.314-1.154,0.672-1.72,1.049l0,0c-0.692,0.42-1.343,0.86-1.993,1.343c-0.65,0.482-1.3,0.965-1.93,1.468
	c-0.629,0.504-1.237,1.028-1.846,1.573h-0.126l-1.636,1.573c-0.545,0.546-1.07,1.112-1.594,1.699l-0.167,0.188
	c-0.503,0.566-0.986,1.154-1.447,1.741c-1.067,1.325-2.035,2.728-2.895,4.195c-0.293,0.482-0.587,0.965-0.86,1.447
	s-0.524,0.923-0.776,1.385c-0.545,1.027-1.049,2.098-1.49,3.146l-0.629,1.573c-0.231,0.608-0.461,1.237-0.671,1.846
	c-0.398,1.259-0.776,2.517-1.07,3.817c-0.106,0.358-0.19,0.723-0.251,1.091c-0.012,0.203-0.012,0.406,0,0.608
	c-0.02,0.182-0.02,0.364,0,0.545c0,0.566-0.21,1.133-0.273,1.699s-0.168,1.175-0.23,1.763c-0.063,0.587-0.126,1.384-0.147,2.098
	c-0.021,0.713,0,1.51,0,2.265c0,0.336,0,0.692,0,1.028c0,0.335,0,0.817,0,1.237c0.058,1.363,0.191,2.722,0.398,4.069
	c0.042,0.401,0.105,0.801,0.189,1.195c0,0.44,0.146,0.902,0.251,1.343s0.273,1.301,0.44,1.951c0.168,0.65,0.315,1.175,0.482,1.74
	c0.168,0.566,0.252,0.84,0.399,1.259c0.146,0.42,0.188,0.566,0.272,0.839c0.084,0.273,0.273,0.756,0.44,1.112
	c0.429,1.158,0.918,2.292,1.468,3.397c0.252,0.546,0.524,1.091,0.818,1.615l0.188,0.357c0.294,0.524,0.587,1.069,0.923,1.572
	c0,0,0,0,0,0.126c0.293,0.482,0.587,0.944,0.902,1.405c0.314,0.462,0.965,1.448,1.489,2.098l1.237,1.573l-2.349,0.462
	c-1.573,0.23-3.104,0.419-4.615,0.566l-2.454,0.23c-14.201,1.112-20.494-1.636-21.542-4.321c-1.049-2.685,2.35-10.152,15.187-19.738
	l0,0c-0.168-1.68-0.252-3.367-0.251-5.055c0-1.573,0-3.126,0.23-4.678C5.451,83.4-2.667,95.043,0.773,103.747
	c2.58,6.356,10.383,9.587,22.927,9.587c2.098,0,4.321,0,6.691-0.273c2.37-0.272,5.307-0.503,8.097-0.923
	c1.657-0.252,3.356-0.545,5.076-0.859l2.664-0.524l0,0c0.188,0.167,0.377,0.293,0.566,0.44c0.566,0.44,1.153,0.839,1.741,1.237
	s1.175,0.776,1.783,1.133c0.608,0.356,1.615,0.943,2.433,1.363l1.133,0.587l0.524,0.252c0.417,0.21,0.844,0.399,1.279,0.566
	c0.482,0.23,0.986,0.42,1.468,0.608s1.259,0.482,1.909,0.692c0.65,0.21,1.279,0.419,1.951,0.608c0.671,0.188,1.112,0.314,1.699,0.44
	c0.587,0.126,1.762,0.419,2.664,0.566c0.545,0.104,1.07,0.188,1.615,0.252h0.335l1.804,0.209c0.587,0,1.174,0.042,1.762,0.126
	c0.734,0,1.489,0,2.245,0h2.266c0.734,0,1.469,0,2.098-0.168h0.188l1.782-0.209l1.28-0.231c0.566,0,1.112-0.188,1.679-0.314
	l1.152-0.272l1.176-0.314c0.166-0.02,0.328-0.062,0.482-0.126l1.678-0.524l1.846-0.672l1.405-0.545h0.126
	c0.881-0.378,1.762-0.776,2.602-1.217c1.012-0.495,2-1.041,2.957-1.636c0.566-0.336,1.111-0.692,1.657-1.049
	s0.985-0.672,1.447-1.028s0.798-0.566,1.175-0.881c1.999-1.548,3.853-3.275,5.537-5.16c0.462-0.482,0.902-1.007,1.322-1.51
	c0.42-0.504,0.881-1.091,1.301-1.657c0.419-0.566,0.817-1.112,1.195-1.678l0.523-0.798c0.609-0.901,1.154-1.846,1.679-2.811l0,0
	c0.336-0.608,0.65-1.237,0.965-1.867l0,0c0.315-0.629,0.587-1.258,0.86-1.888c1.468-3.316,2.511-6.805,3.104-10.383
	c0,0,0-0.126,0-0.188l2.098-1.405c1.469-0.944,2.896-1.909,4.195-2.874C138.061,67.837,147.061,56.698,143.473,47.469z
	 M104.709,93.28L104.709,93.28c-0.877,1.572-1.865,3.079-2.957,4.51c-0.734,0.965-1.51,1.867-2.328,2.748s-1.238,1.301-1.909,1.909
	c-0.315,0.315-0.652,0.609-1.007,0.881c-1.367,1.157-2.812,2.223-4.321,3.188l-1.216,0.713c-0.42,0.252-0.84,0.482-1.28,0.692
	c-0.231,0.131-0.47,0.25-0.713,0.356l-0.734,0.336c-0.524,0.251-1.049,0.461-1.595,0.692c-0.545,0.23-1.447,0.587-2.201,0.839
	l-1.574,0.482c-0.523,0.146-1.049,0.293-1.572,0.398c-0.38,0.106-0.766,0.19-1.154,0.252c-0.44,0-0.881,0.167-1.321,0.23
	c-0.44,0.062-1.364,0.21-2.098,0.272h-1.028c-0.307,0.021-0.615,0.021-0.922,0h-1.658c-0.797,0-1.615,0-2.391,0H70.12h-0.273
	l-1.468-0.126c-1.527-0.196-3.041-0.49-4.531-0.881l-1.363-0.398l-1.678-0.566c-1.245-0.462-2.461-0.985-3.65-1.573l3-0.839
	c2.245-0.629,4.531-1.321,6.838-2.098l0,0c4.866-1.553,9.817-3.314,14.683-5.265c5.433-2.098,10.803-4.489,15.984-6.985l0,0
	c2.098-1.049,4.32-2.098,6.418-3.23l2.77-1.468c-0.147,0.44-0.315,0.859-0.482,1.279c-0.168,0.419-0.357,0.839-0.546,1.237
	C105.549,91.686,105.15,92.483,104.709,93.28z M108.422,78.303l-1.426,0.818l0,0l-1.805,1.049l-1.866,1.027l-0.671,0.356
	c-1.574,0.86-3.189,1.721-4.867,2.56l-2.916,1.447c-1.971,0.965-4.006,1.908-6.125,2.853c-2.118,0.944-4.195,1.888-6.502,2.811
	l-3.377,1.385c-7.608,3.007-15.374,5.598-23.263,7.761c-1.615,0.44-3.23,0.86-4.824,1.238c-0.776,0.188-1.531,0.377-2.287,0.524
	c-4.157-3.911-7.322-8.759-9.229-14.139h33.898c2.212,0,4.006-1.795,4.004-4.008c0-2.211-1.793-4.004-4.004-4.005H37.397
	c-0.151-1.323-0.228-2.653-0.23-3.985c0-0.566,0-1.111,0-1.657c-0.021-0.307-0.021-0.615,0-0.923c0-0.356,0-0.713,0-1.049
	c-0.012-0.055-0.012-0.112,0-0.168c0-0.565,0.125-1.111,0.209-1.636l0,0c0-0.503,0.168-1.007,0.273-1.489
	c0.104-0.482,0.125-0.65,0.209-0.985h23.074c2.207-0.16,3.866-2.079,3.706-4.286c-0.144-1.984-1.722-3.562-3.706-3.706H40.921
	c0.105-0.23,0.231-0.44,0.335-0.671l0.524-0.966c0.189-0.335,0.399-0.691,0.608-1.007c0.21-0.314,0.482-0.797,0.755-1.195
	c0.272-0.398,0.86-1.279,1.342-1.888s0.524-0.692,0.797-1.028l0.293-0.335c0.293-0.378,0.629-0.734,0.944-1.091
	c0.315-0.356,0.797-0.86,1.196-1.259c1.632-1.646,3.416-3.135,5.328-4.446c0.965-0.65,1.951-1.238,2.958-1.805
	s2.097-1.049,3.146-1.51c0.42-0.189,0.86-0.356,1.28-0.504c0.419-0.146,1.342-0.503,2.098-0.713l1.699-0.482l1.615-0.378
	c0.818-0.175,1.644-0.308,2.475-0.398c0.366-0.081,0.738-0.13,1.112-0.146c0.566,0,1.133-0.126,1.72-0.147
	c0.587-0.021,1.384,0,2.098,0c19.787,0.069,35.818,16.081,35.91,35.869c0,0.63,0,1.259,0,1.888L108.422,78.303z"/>
</svg>
