<?xml version="1.0" encoding="utf-8"?>
<!-- Generator: Adobe Illustrator 16.0.0, SVG Export Plug-In . SVG Version: 6.00 Build 0)  -->
<!DOCTYPE svg PUBLIC "-//W3C//DTD SVG 1.1//EN" "http://www.w3.org/Graphics/SVG/1.1/DTD/svg11.dtd">
<svg version="1.1" id="Layer_1" xmlns="http://www.w3.org/2000/svg" xmlns:xlink="http://www.w3.org/1999/xlink" x="0px" y="0px"
	 width="188.785px" height="188.783px" viewBox="0 0 188.785 188.783" enable-background="new 0 0 188.785 188.783"
	 xml:space="preserve">
<path fill="none" d="M129.572,77.032c-1.569,0-3.09-0.2-4.56-0.58c1.47,0.39,2.99,0.59,4.56,0.59c1.57,0,3.09-0.2,4.561-0.59
	C132.662,76.832,131.143,77.032,129.572,77.032z M86.343,101.382c0.2,0.149,0.39,0.319,0.57,0.5v-0.01
	C86.732,101.691,86.542,101.521,86.343,101.382z M79.823,101.872v0.01c0.18-0.181,0.38-0.351,0.58-0.5
	C80.203,101.521,80.002,101.691,79.823,101.872z"/>
<path fill="#2D2D2D" d="M142.183,46.612c-0.21-0.21-0.42-0.42-0.64-0.62c-0.44-0.39-0.9-0.77-1.37-1.12
	c-3.05-2.26-6.73-3.49-10.601-3.49s-7.54,1.23-10.59,3.49c-0.47,0.35-0.92,0.73-1.359,1.12c-0.221,0.2-0.44,0.41-0.65,0.62
	c-3.37,3.36-5.22,7.84-5.22,12.6c0,4.76,1.85,9.24,5.22,12.6c0.85,0.85,1.76,1.59,2.729,2.24c0.181,0.12,0.36,0.24,0.551,0.35
	c0.729,0.46,1.5,0.86,2.3,1.2c0.399,0.17,0.8,0.33,1.21,0.47c0.41,0.14,0.83,0.27,1.25,0.38c1.47,0.39,2.99,0.59,4.56,0.59
	c1.57,0,3.09-0.2,4.561-0.59c0.43-0.11,0.84-0.24,1.25-0.38c0.41-0.14,0.81-0.3,1.21-0.47c0.8-0.34,1.569-0.74,2.319-1.2
	c0.181-0.11,0.37-0.23,0.551-0.35c0.97-0.65,1.88-1.39,2.72-2.24c3.36-3.36,5.22-7.84,5.22-12.6
	C147.402,54.452,145.543,49.972,142.183,46.612z M135.093,64.722c-1.48,1.47-3.431,2.29-5.51,2.29c-2.091,0-4.051-0.82-5.521-2.29
	c-1.47-1.47-2.28-3.43-2.28-5.51c0-2.09,0.811-4.04,2.28-5.52c1.47-1.47,3.43-2.28,5.521-2.28c1.04,0,2.05,0.2,2.979,0.59
	c0.93,0.38,1.79,0.96,2.53,1.69v0.01C138.133,56.742,138.133,61.682,135.093,64.722z"/>
<path fill="#2D2D2D" d="M37.547,124.069c1.957-1.957,1.957-5.133,0-7.09s-5.133-1.957-7.09,0L1.468,145.968
	c-1.957,1.957-1.957,5.133,0,7.09c0.98,0.98,2.261,1.469,3.545,1.469c1.284,0,2.565-0.487,3.545-1.469L37.547,124.069z"/>
<path fill="#2D2D2D" d="M45.253,143.528c-1.957-1.956-5.131-1.956-7.088,0L7.95,173.744c-1.959,1.957-1.959,5.131,0,7.088
	c0.979,0.979,2.261,1.469,3.545,1.469c1.284,0,2.567-0.489,3.545-1.469l30.214-30.213C47.21,148.662,47.21,145.489,45.253,143.528z"
	/>
<path fill="#2D2D2D" d="M64.715,151.237l-28.989,28.988c-1.959,1.957-1.959,5.133,0,7.09c0.978,0.979,2.261,1.468,3.543,1.468
	c1.284,0,2.567-0.488,3.545-1.468l28.989-28.987c1.957-1.957,1.957-5.134,0-7.091C69.846,149.278,66.672,149.281,64.715,151.237z"/>
<path fill="#2D2D2D" d="M187.322,1.472c-1.14-1.14-2.76-1.66-4.35-1.41c-0.58,0.1-14.47,2.38-33.41,9.61
	c-11.11,4.25-21.66,9.33-31.37,15.11c-11.92,7.1-22.59,15.28-31.73,24.31l-37.86,7.37c-0.98,0.19-1.88,0.67-2.58,1.38l-34.3,34.19
	c-1.57,1.55-1.93,3.95-0.89,5.9c0.88,1.66,2.6,2.66,4.42,2.66c0.32,0,0.64-0.03,0.96-0.09l38.69-7.541
	c-2.51,4.95-4.87,10.081-7.06,15.39c-0.77,1.87-0.34,4.021,1.09,5.45l9.48,9.479l-8.81,8.811c-1.95,1.95-1.95,5.13,0,7.09
	c0.98,0.979,2.26,1.46,3.55,1.46c1.28,0,2.56-0.48,3.54-1.46l8.81-8.81l9.48,9.479c0.96,0.96,2.24,1.47,3.54,1.47
	c0.64,0,1.29-0.13,1.91-0.38c5.32-2.189,10.44-4.55,15.38-7.06l-7.52,38.689c-0.42,2.16,0.62,4.351,2.57,5.38
	c0.74,0.4,1.55,0.591,2.35,0.591c1.3,0,2.581-0.511,3.55-1.471l34.189-34.3c0.7-0.71,1.181-1.61,1.37-2.59l7.37-37.86
	c9.04-9.14,17.22-19.81,24.32-31.729c5.78-9.71,10.86-20.26,15.1-31.37c7.23-18.94,9.521-32.83,9.61-33.41
	C188.973,4.222,188.452,2.602,187.322,1.472z M30.453,87.512l21.57-21.5l23.2-4.51c-5.03,6.19-9.7,12.87-13.99,20.02L30.453,87.512z
	 M122.772,136.771l-21.5,21.561l5.99-30.78c7.16-4.29,13.83-8.95,20.03-13.99L122.772,136.771z M172.282,28.642
	c-0.399,1.16-0.81,2.34-1.25,3.55c0,0,0,0,0,0.01c-0.439,1.2-0.899,2.43-1.38,3.68c-6.33,16.51-18,40.31-37.64,59.96
	c-9.05,9.04-19.58,17.08-31.47,24.04c-0.21,0.1-0.42,0.22-0.61,0.359c-6.37,3.69-13.12,7.07-20.24,10.141l-7.1-7.101l14.32-14.319
	c1.96-1.95,1.96-5.12,0-7.08v-0.01c-0.18-0.181-0.37-0.351-0.57-0.49c-0.21-0.15-0.42-0.28-0.64-0.4c-1.45-0.76-3.21-0.76-4.67,0
	c-0.21,0.12-0.43,0.25-0.63,0.4c-0.2,0.14-0.4,0.31-0.58,0.49v0.01l-14.32,14.31l-7.09-7.09c3.06-7.13,6.45-13.88,10.14-20.25
	c0.13-0.19,0.25-0.4,0.35-0.61c6.96-11.89,14.99-22.41,24.05-31.46v-0.01c3.07-3.07,6.24-5.94,9.47-8.63
	c1.29-1.08,2.59-2.13,3.899-3.14c1.301-1.02,2.62-2.01,3.931-2.97c0.659-0.48,1.319-0.95,1.979-1.42c1.32-0.93,2.641-1.83,3.97-2.71
	c13.21-8.77,26.381-14.81,36.7-18.77c5.641-2.17,10.84-3.87,15.32-5.19c1.5-0.44,2.92-0.84,4.24-1.2c0.89-0.24,1.739-0.46,2.54-0.66
	c0.8-0.21,1.56-0.4,2.27-0.57C176.242,15.792,174.633,21.722,172.282,28.642z"/>
<path fill="#FFFFFF" d="M127.293,113.562l-4.521,23.21l-21.5,21.561l5.99-30.78C114.423,123.262,121.093,118.602,127.293,113.562z"
	/>
<path fill="#FFFFFF" d="M175.003,12.082c-0.801,0.2-1.65,0.42-2.54,0.66c-1.32,0.36-2.74,0.76-4.24,1.2
	c-4.48,1.32-9.68,3.02-15.32,5.19c-10.319,3.96-23.49,10-36.7,18.77c-1.329,0.88-2.649,1.78-3.97,2.71
	c-0.66,0.47-1.32,0.94-1.979,1.42c-1.311,0.96-2.63,1.95-3.931,2.97c-1.31,1.01-2.609,2.06-3.899,3.14
	c-3.23,2.69-6.4,5.56-9.47,8.63v0.01c-9.06,9.05-17.09,19.57-24.05,31.46c-0.1,0.21-0.22,0.42-0.35,0.61
	c-3.69,6.37-7.08,13.12-10.14,20.25l7.09,7.09l14.32-14.31v-0.01c0.18-0.181,0.38-0.351,0.58-0.49c0.2-0.15,0.42-0.28,0.63-0.4
	c1.46-0.76,3.22-0.76,4.67,0c0.22,0.12,0.43,0.25,0.64,0.4c0.2,0.14,0.39,0.31,0.57,0.49v0.01c1.96,1.96,1.96,5.13,0,7.08
	l-14.32,14.319l7.1,7.101c7.12-3.07,13.87-6.45,20.24-10.141c0.19-0.14,0.4-0.26,0.61-0.359c11.89-6.96,22.42-15,31.47-24.04
	c19.64-19.65,31.31-43.45,37.64-59.96c0.48-1.25,0.94-2.48,1.38-3.68c0-0.01,0-0.01,0-0.01c0.44-1.21,0.851-2.39,1.25-3.55
	c2.351-6.92,3.96-12.85,4.99-17.13C176.562,11.682,175.803,11.872,175.003,12.082z M142.183,71.812c-0.84,0.85-1.75,1.59-2.72,2.24
	c-0.181,0.12-0.37,0.24-0.551,0.35c-0.75,0.46-1.52,0.86-2.319,1.2c-0.4,0.17-0.8,0.33-1.21,0.47c-0.41,0.14-0.82,0.27-1.25,0.38
	c-1.471,0.39-2.99,0.59-4.561,0.59c-1.569,0-3.09-0.2-4.56-0.59c-0.42-0.11-0.84-0.24-1.25-0.38c-0.41-0.14-0.811-0.3-1.21-0.47
	c-0.8-0.34-1.57-0.74-2.3-1.2c-0.19-0.11-0.37-0.23-0.551-0.35c-0.97-0.65-1.88-1.39-2.729-2.24c-3.37-3.36-5.22-7.84-5.22-12.6
	c0-4.76,1.85-9.24,5.22-12.6c0.21-0.21,0.43-0.42,0.65-0.62c0.439-0.39,0.89-0.77,1.359-1.12c3.05-2.26,6.72-3.49,10.59-3.49
	s7.551,1.23,10.601,3.49c0.47,0.35,0.93,0.73,1.37,1.12c0.22,0.2,0.43,0.41,0.64,0.62c3.36,3.36,5.22,7.84,5.22,12.6
	C147.402,63.972,145.543,68.452,142.183,71.812z"/>
<path fill="#FFFFFF" d="M135.093,64.722c-1.48,1.47-3.431,2.29-5.51,2.29c-2.091,0-4.051-0.82-5.521-2.29
	c-1.47-1.47-2.28-3.43-2.28-5.51c0-2.09,0.811-4.04,2.28-5.52c1.47-1.47,3.43-2.28,5.521-2.28c1.04,0,2.05,0.2,2.979,0.59
	c0.93,0.38,1.79,0.96,2.53,1.69v0.01C138.133,56.742,138.133,61.682,135.093,64.722z"/>
<path fill="#FFFFFF" d="M75.223,61.501c-5.03,6.19-9.7,12.87-13.99,20.02l-30.78,5.99l21.57-21.5L75.223,61.501z"/>
</svg>
